<svg width="29" height="29" xmlns="http://www.w3.org/2000/svg">
    <path d="M22.512 18.186a3.726 3.726 0 0 0-2.304.27l-2.586 1.116a25.428 25.428 0 0 1-4.584-3.636 24.84 24.84 0 0 1-3.6-4.65l.846-2.328a3.78 3.78 0 0 0 .222-2.238L8.784 0 0 1.266l.036.534a28.974 28.974 0 0 0 8.322 18.6 28.566 28.566 0 0 0 18.936 8.4h.57l.936-9.144-6.288-1.47zm4.278 9.36a27.33 27.33 0 0 1-17.58-7.95A27.78 27.78 0 0 1 1.266 2.292l6.6-.954 1.428 5.646c.102.52.043 1.057-.168 1.542L8.1 11.4l.15.246a26.4 26.4 0 0 0 3.936 5.154 27.132 27.132 0 0 0 5.058 3.972l.27.174 3.192-1.374a2.49 2.49 0 0 1 1.554-.192l5.25 1.2-.72 6.966z" fill="#505050" fill-rule="nonzero"/>
</svg>
