<svg width="24" height="31" xmlns="http://www.w3.org/2000/svg">
    <path d="m21.065 24.528-4.407-2.452c-.457-.23-.745-.7-.742-1.212l-.003-1.228a11.853 11.853 0 0 0 2.038-4.161.509.509 0 0 0 .013-.115v-1.024H19.5c.848 0 1.535-.688 1.536-1.536V9.728a1.534 1.534 0 0 0-1.024-1.442v-.094a8.192 8.192 0 0 0-16.384 0v.094a1.534 1.534 0 0 0-1.024 1.442V12.8a1.533 1.533 0 0 0 1.024 1.442v1.118a2.05 2.05 0 0 0 2.048 2.048h.704c.373.784.823 1.53 1.344 2.224v1.18c.002.497-.27.954-.706 1.19l-4.566 2.493a4.607 4.607 0 0 0-2.408 4.054v1.659a.512.512 0 0 0 .512.512h22.528c.283 0 .512-.23.512-.512v-1.556a4.591 4.591 0 0 0-2.531-4.124zm-1.053-14.8V12.8c0 .283-.23.512-.512.512h-1.536V9.216H19.5c.283 0 .512.23.512.512zM4.14 13.312a.513.513 0 0 1-.512-.512V9.728c0-.283.23-.512.512-.512h1.536v4.096H4.14zm1.536 3.072a1.025 1.025 0 0 1-1.024-1.024v-1.024h1.024v1.024c0 .039.004.077.013.115.073.308.164.611.27.909h-.283zm-.003-8.192H4.652a7.176 7.176 0 0 1 7.168-7.168 7.176 7.176 0 0 1 7.168 7.168h-1.021a4.58 4.58 0 0 0-1.073-3.312c-1.052-1.2-2.759-1.808-5.074-1.808S7.798 3.68 6.747 4.88a4.58 4.58 0 0 0-1.074 3.312zM1.068 29.696V28.55a3.585 3.585 0 0 1 1.873-3.155l4.565-2.492a2.367 2.367 0 0 0 1.242-2.09v-1.18a1.01 1.01 0 0 0-.207-.617c-.38-.509-.72-1.046-1.017-1.607h2.342a1.533 1.533 0 0 0 1.442 1.024h1.536a1.536 1.536 0 0 0 0-3.072h-1.536a1.534 1.534 0 0 0-1.442 1.024H7.051a7.961 7.961 0 0 1-.351-1.083V8.192a3.552 3.552 0 0 1 .816-2.637c.849-.968 2.297-1.459 4.304-1.459 2 0 3.445.487 4.294 1.448a3.6 3.6 0 0 1 .826 2.648v7.109a10.832 10.832 0 0 1-1.84 3.714 1.01 1.01 0 0 0-.208.618v1.231a2.358 2.358 0 0 0 1.287 2.116l4.407 2.453a3.583 3.583 0 0 1 1.986 3.219v1.044H1.068zm9.728-12.8c0-.283.23-.512.512-.512h1.536a.512.512 0 0 1 0 1.024h-1.536a.513.513 0 0 1-.512-.512z" fill="#505050" fill-rule="nonzero"/>
</svg>
